<svg width="155" height="155" viewBox="0 0 155 155" fill="none" xmlns="http://www.w3.org/2000/svg">
<g clip-path="url(#clip0_192_86)">
<path d="M141.4 22.4412C133.608 20.0324 125.043 19 116.83 19C103.141 19 88.399 21.7529 78.22 29.3235C68.041 21.7529 53.299 19 39.61 19C25.921 19 11.179 21.7529 1 29.3235V130.15C1 131.871 2.755 133.591 4.51 133.591C5.212 133.591 5.563 133.247 6.265 133.247C15.742 128.774 29.431 125.676 39.61 125.676C53.299 125.676 68.041 128.429 78.22 136C87.697 130.15 104.896 125.676 116.83 125.676C128.413 125.676 140.347 127.741 150.175 132.903C150.877 133.247 151.228 133.247 151.93 133.247C153.685 133.247 155.44 131.526 155.44 129.806V29.3235C151.228 26.2265 146.665 24.1618 141.4 22.4412ZM141.4 115.353C133.678 112.944 125.254 111.912 116.83 111.912C104.896 111.912 87.697 116.385 78.22 122.235V43.0882C87.697 37.2382 104.896 32.7647 116.83 32.7647C125.254 32.7647 133.678 33.7971 141.4 36.2059V115.353Z" fill="#182D52"/>
<path d="M117.383 60.3286C123.669 60.3286 129.74 60.9501 135.24 62.124V51.628C129.597 50.5922 123.526 49.9707 117.383 49.9707C105.24 49.9707 94.24 51.9732 85.24 55.7021V67.1649C93.3114 62.7455 104.526 60.3286 117.383 60.3286Z" fill="#D9D9D9"/>
<path d="M85.24 74.0707V85.5335C93.3114 81.1141 104.526 78.6973 117.383 78.6973C123.669 78.6973 129.74 79.3188 135.24 80.4927V69.9966C129.597 68.9608 123.526 68.3394 117.383 68.3394C105.24 68.3394 94.24 70.4109 85.24 74.0707Z" fill="#D9D9D9"/>
<path d="M117.383 86.7765C105.24 86.7765 94.24 88.779 85.24 92.5079V103.971C93.3114 99.5513 104.526 97.1344 117.383 97.1344C123.669 97.1344 129.74 97.7559 135.24 98.9298V88.4338C129.597 87.3289 123.526 86.7765 117.383 86.7765Z" fill="#D9D9D9"/>
</g>
<defs>
<clipPath id="clip0_192_86">
<rect width="155" height="155" fill="white"/>
</clipPath>
</defs>
</svg>
