<svg width="155" height="155" viewBox="0 0 155 155" fill="none" xmlns="http://www.w3.org/2000/svg">
<path d="M140.909 22.4412C133.089 20.0324 124.493 19 116.25 19C102.511 19 87.7159 21.7529 77.5 29.3235C67.2841 21.7529 52.4886 19 38.75 19C25.0114 19 10.2159 21.7529 0 29.3235V130.15C0 131.871 1.76136 133.591 3.52273 133.591C4.22727 133.591 4.57955 133.247 5.28409 133.247C14.7955 128.774 28.5341 125.676 38.75 125.676C52.4886 125.676 67.2841 128.429 77.5 136C87.0114 130.15 104.273 125.676 116.25 125.676C127.875 125.676 139.852 127.741 149.716 132.903C150.42 133.247 150.773 133.247 151.477 133.247C153.239 133.247 155 131.526 155 129.806V29.3235C150.773 26.2265 146.193 24.1618 140.909 22.4412ZM140.909 115.353C133.159 112.944 124.705 111.912 116.25 111.912C104.273 111.912 87.0114 116.385 77.5 122.235V43.0882C87.0114 37.2382 104.273 32.7647 116.25 32.7647C124.705 32.7647 133.159 33.7971 140.909 36.2059V115.353Z" fill="white"/>
<path d="M116.688 59.3875C122.974 59.3875 129.045 60.0089 134.545 61.1828V50.6868C128.903 49.651 122.831 49.0295 116.688 49.0295C104.545 49.0295 93.5454 51.0321 84.5454 54.7609V66.2237C92.6168 61.8043 103.831 59.3875 116.688 59.3875Z" fill="white"/>
<path d="M84.5454 73.1295V84.5922C92.6168 80.1728 103.831 77.756 116.688 77.756C122.974 77.756 129.045 78.3775 134.545 79.5514V69.0553C128.903 68.0195 122.831 67.3981 116.688 67.3981C104.545 67.3981 93.5454 69.4697 84.5454 73.1295Z" fill="white"/>
<path d="M116.688 85.8353C104.545 85.8353 93.5454 87.8379 84.5454 91.5667V103.029C92.6168 98.6101 103.831 96.1933 116.688 96.1933C122.974 96.1933 129.045 96.8147 134.545 97.9886V87.4926C128.903 86.3877 122.831 85.8353 116.688 85.8353Z" fill="white"/>
</svg>
